<svg xmlns="http://www.w3.org/2000/svg" width="20" height="21" fill="none"><path fill="#2d6a4f" d="M14.326 14.08c.278 1.204.555 2.175.787 3.193.046.232.139.51.185.74.092.417 0 .834-.417 1.065-.416.232-.786.047-1.064-.277-.833-.972-1.666-1.99-2.499-2.962-.185-.232-.37-.417-.694-.74a60.902 60.902 0 0 1-.833 2.637c-.231.694-.417 1.435-.74 2.083-.093.277-.463.555-.695.601-.462.047-.601-.37-.648-.74-.092-1.018-.138-2.083-.23-3.1-.047-.648-.093-1.296-.186-2.13-.463.186-.787.278-1.11.417-.972.37-1.944.787-2.87 1.157a3.844 3.844 0 0 1-.972.278c-.509.092-1.064.092-1.388-.417-.278-.416-.139-.972.417-1.48.925-.834 1.85-1.574 2.822-2.36.278-.232.556-.463.88-.741-.972-.463-1.944-.926-2.823-1.389-.926-.462-1.203-.925-1.018-1.48.185-.556.694-.833 1.666-.74 1.064.092 2.128.23 3.193.323.463.046.925 0 1.527 0-.093-.694-.093-1.25-.185-1.805-.185-.925-.417-1.804-.602-2.73-.046-.324-.092-.648-.092-.972.046-.463.231-.879.74-1.018.463-.139.833.046 1.064.417.695.879 1.25 1.758 1.851 2.591.232.37.463.74.926 1.064.185-1.018.324-1.99.51-3.007.092-.417.138-.88.277-1.296.185-.602.555-.88 1.018-.833.509.092.74.463.833.925a85.57 85.57 0 0 1 .324 3.425c.046.277.046.601.046 1.018.37-.139.648-.278.925-.417.695-.37 1.389-.74 2.083-1.064.833-.416 1.296-.416 1.62.046.277.417.185.88-.417 1.574l-1.666 1.943c-.416.463-.787.972-1.25 1.527.186.232.371.463.602.648 1.018 1.111 2.083 2.222 3.1 3.332.325.37.51.74.232 1.203-.277.463-.694.463-1.157.37a932.761 932.761 0 0 1-4.072-.879Z"/></svg>